<?xml version="1.0" encoding="UTF-8" standalone="no"?>
<svg
   xmlns:osb="http://www.openswatchbook.org/uri/2009/osb"
   xmlns:dc="http://purl.org/dc/elements/1.1/"
   xmlns:cc="http://creativecommons.org/ns#"
   xmlns:rdf="http://www.w3.org/1999/02/22-rdf-syntax-ns#"
   xmlns:svg="http://www.w3.org/2000/svg"
   xmlns="http://www.w3.org/2000/svg"
   id="svg8"
   version="1.1"
   viewBox="0 0 12.7 12.7"
   height="12.7mm"
   width="12.7mm">
  <defs
     id="defs2">
    <linearGradient
       osb:paint="solid"
       id="linearGradient6236">
      <stop
         id="stop6234"
         offset="0"
         style="stop-color:#000000;stop-opacity:1;" />
    </linearGradient>
    <clipPath
       clipPathUnits="userSpaceOnUse"
       id="clipPath3865">
      <path
         d="M 0,180 H 288 V 0 H 0 Z"
         id="path3863" />
    </clipPath>
  </defs>
  <metadata
     id="metadata5">
    <rdf:RDF>
      <cc:Work
         rdf:about="">
        <dc:format>image/svg+xml</dc:format>
        <dc:type
           rdf:resource="http://purl.org/dc/dcmitype/StillImage" />
        <dc:title></dc:title>
      </cc:Work>
    </rdf:RDF>
  </metadata>
  <g
     transform="translate(1.9238999e-7,-284.3)"
     id="layer1">
    <ellipse
       ry="5.4761944"
       rx="5.4580526"
       style="fill:#ffffff;fill-opacity:1;stroke-width:0.24667329"
       cy="290.71387"
       cx="6.3503561"
       id="path3978" />
    <g
       id="g3857"
       transform="matrix(0.25149511,0,0,-0.25150009,-29.865296,319.23862)">
      <g
         id="g3859">
        <g
           id="g3861"
           clip-path="url(#clipPath3865)">
          <g
             id="g3867"
             transform="translate(144,134.9629)">
            <path
               d="m 0,0 c -11.74,0 -21.289,-9.55 -21.289,-21.29 0,-11.74 9.549,-21.29 21.289,-21.29 11.739,0 21.29,9.55 21.29,21.29 C 21.29,-9.55 11.739,0 0,0 m 0,-46.539 c -13.922,0 -25.249,11.328 -25.249,25.249 0,13.921 11.327,25.248 25.249,25.248 13.921,0 25.249,-11.327 25.249,-25.248 0,-13.921 -11.328,-25.249 -25.249,-25.249"
               style="fill:#d2d2cc;fill-opacity:1;fill-rule:nonzero;stroke:none"
               id="path3869" />
          </g>
          <g
             id="g3871"
             transform="translate(149.9004,116.4385)">
            <path
               d="m 0,0 c -0.513,-2.838 -1.756,-5.423 -3.529,-7.551 -0.709,-0.854 -1.505,-1.634 -2.371,-2.328 2.803,-2.245 6.36,-3.587 10.231,-3.587 2.078,0 4.066,0.39 5.896,1.096 C 9.202,-6.692 5.256,-2.03 0,0"
               style="fill:#4eafb2;fill-opacity:1;fill-rule:nonzero;stroke:none"
               id="path3873" />
          </g>
          <g
             id="g3875"
             transform="translate(144.001,132.168)">
            <path
               d="m 0,0 c -3.755,-3.003 -6.162,-7.62 -6.162,-12.803 0,-0.999 0.09,-1.976 0.261,-2.926 1.772,0.684 3.692,1.069 5.699,1.093 h 0.008 c 0.027,0 0.054,0 0.082,10e-4 h 0.015 c 0.032,0 0.064,0 0.097,0 0.031,0 0.063,0 0.097,0 H 0.11 c 0.029,-10e-4 0.056,-10e-4 0.083,-10e-4 H 0.2 c 2.008,-0.024 3.928,-0.409 5.699,-1.093 0.171,0.95 0.261,1.927 0.261,2.926 C 6.16,-7.62 3.754,-3.003 0,0"
               style="fill:#b9d768;fill-opacity:1;fill-rule:nonzero;stroke:none"
               id="path3877" />
          </g>
          <g
             id="g3879"
             transform="translate(144.001,117.5332)">
            <path
               d="M 0,0 C 0.031,0 0.063,0 0.097,0 0.063,0 0.031,0 0,0 m -0.097,0 h -0.015 0.015 M 0.11,0 c 0.029,-0.001 0.056,-0.001 0.083,-0.001 -0.027,0 -0.054,0 -0.083,0.001 m -0.304,-0.001 h -0.008 0.008 m 0.394,0 C 2.205,-0.025 4.123,-0.414 5.893,-1.096 5.382,-3.934 4.14,-6.518 2.37,-8.646 4.144,-6.518 5.387,-3.933 5.899,-1.095 4.128,-0.41 2.208,-0.025 0.2,-0.001"
               style="fill:#36a35b;fill-opacity:1;fill-rule:nonzero;stroke:none"
               id="path3881" />
          </g>
          <g
             id="g3883"
             transform="translate(138.0996,116.4385)">
            <path
               d="m 0,0 c -5.256,-2.03 -9.203,-6.692 -10.227,-12.37 1.83,-0.706 3.816,-1.096 5.894,-1.096 3.872,0 7.43,1.342 10.233,3.587 -0.805,0.646 -1.549,1.366 -2.219,2.15 C 3.678,-7.727 3.675,-7.724 3.673,-7.721 3.663,-7.71 3.654,-7.7 3.645,-7.687 1.81,-5.534 0.524,-2.9 0,0"
               style="fill:#4aba78;fill-opacity:1;fill-rule:nonzero;stroke:none"
               id="path3885" />
          </g>
          <g
             id="g3887"
             transform="translate(146.3711,108.8872)">
            <path
               d="m 0,0 c -0.71,-0.853 -1.505,-1.632 -2.37,-2.325 -0.807,0.645 -1.551,1.364 -2.221,2.147 0.67,-0.783 1.414,-1.504 2.22,-2.15 C -1.505,-1.634 -0.709,-0.854 0,0 m -4.627,-0.136 c 0.01,-0.012 0.019,-0.023 0.028,-0.034 -0.009,0.011 -0.018,0.022 -0.028,0.034"
               style="fill:#009b61;fill-opacity:1;fill-rule:nonzero;stroke:none"
               id="path3889" />
          </g>
          <g
             id="g3891"
             transform="translate(144.001,117.5332)">
            <path
               d="M 0,0 C -0.033,0 -0.065,0 -0.097,0 -0.065,0 -0.033,0 0,0 M 0.097,0 H 0.11 0.097 m -0.209,0 c -0.028,-0.001 -0.055,-0.001 -0.082,-0.001 0.027,0 0.054,0 0.082,0.001 M 0.193,-0.001 H 0.2 0.193 m -0.395,0 c -2.007,-0.024 -3.927,-0.409 -5.699,-1.094 0.524,-2.9 1.809,-5.534 3.644,-7.687 -1.83,2.153 -3.115,4.787 -3.638,7.686 1.77,0.683 3.689,1.071 5.693,1.095 m -2.027,-8.815 c 0.002,-0.002 0.005,-0.005 0.008,-0.008 -0.003,0.003 -0.006,0.006 -0.008,0.008"
               style="fill:#1cb254;fill-opacity:1;fill-rule:nonzero;stroke:none"
               id="path3893" />
          </g>
          <g
             id="g3895"
             transform="translate(144.001,117.5332)">
            <path
               d="M 0,0 C -0.033,0 -0.065,0 -0.097,0 H -0.112 C -0.14,-0.001 -0.167,-0.001 -0.194,-0.001 h -0.008 c -2.004,-0.024 -3.923,-0.412 -5.693,-1.095 0.523,-2.899 1.808,-5.533 3.638,-7.686 0.01,-0.012 0.019,-0.023 0.028,-0.034 0.002,-0.002 0.005,-0.005 0.008,-0.008 0.67,-0.783 1.414,-1.502 2.221,-2.147 0.865,0.693 1.66,1.472 2.37,2.325 1.77,2.128 3.012,4.712 3.523,7.55 -1.77,0.682 -3.688,1.071 -5.693,1.095 H 0.193 c -0.027,0 -0.054,0 -0.083,0.001 L 0.097,0 C 0.063,0 0.031,0 0,0"
               style="fill:#00994c;fill-opacity:1;fill-rule:nonzero;stroke:none"
               id="path3897" />
          </g>
          <g
             id="g3899"
             transform="translate(66.459,70.0166)" />
          <g
             id="g3903"
             transform="translate(81.1895,64.793)" />
          <g
             id="g3907"
             transform="translate(119.5938,59.8066)" />
          <g
             id="g3911"
             transform="translate(132.1924,45.377)" />
          <g
             id="g3915"
             transform="translate(183.7178,53.377)" />
          <g
             id="g3919"
             transform="translate(198.8506,64.793)" />
          <g
             id="g3923"
             transform="translate(233.918,53.3379)" />
          <g
             id="g3927"
             transform="translate(49.6221,70.6992)" />
          <g
             id="g3931"
             transform="translate(156.7695,70.6992)" />
        </g>
      </g>
    </g>
  </g>
</svg>
